<mxfile host="65bd71144e" modified="2020-10-05T05:44:43.159Z" agent="5.0 (Windows NT 10.0; Win64; x64) AppleWebKit/537.36 (KHTML, like Gecko) Code/1.49.3 Chrome/83.0.4103.122 Electron/9.2.1 Safari/537.36" etag="qGCAJv4HP0vXxxuBWNoI" version="13.6.5">
    <diagram id="5eGMG9rkNKcMmodzC2qi" name="ページ1">
        <mxGraphModel dx="462" dy="589" grid="1" gridSize="10" guides="1" tooltips="1" connect="1" arrows="1" fold="1" page="1" pageScale="1" pageWidth="827" pageHeight="1169" math="0" shadow="0">
            <root>
                <mxCell id="0"/>
                <mxCell id="1" parent="0"/>
                <mxCell id="zmosrdIJD9iTMbEiPch1-2" value="&lt;font style=&quot;font-size: 19px&quot;&gt;Aomori&lt;/font&gt;" style="rounded=1;whiteSpace=wrap;html=1;fillColor=#f5f5f5;fontColor=#333333;strokeColor=none;" parent="1" vertex="1">
                    <mxGeometry x="280" y="200" width="86" height="50" as="geometry"/>
                </mxCell>
                <mxCell id="zmosrdIJD9iTMbEiPch1-3" value="&lt;font style=&quot;font-size: 19px&quot;&gt;Iwate&lt;/font&gt;" style="rounded=1;whiteSpace=wrap;html=1;fillColor=#f5f5f5;fontColor=#333333;strokeColor=none;" parent="1" vertex="1">
                    <mxGeometry x="340" y="280" width="86" height="50" as="geometry"/>
                </mxCell>
                <mxCell id="zmosrdIJD9iTMbEiPch1-4" value="&lt;font style=&quot;font-size: 19px&quot;&gt;Akita&lt;/font&gt;" style="rounded=1;whiteSpace=wrap;html=1;fillColor=#f5f5f5;fontColor=#333333;strokeColor=none;" parent="1" vertex="1">
                    <mxGeometry x="230" y="280" width="86" height="50" as="geometry"/>
                </mxCell>
                <mxCell id="zmosrdIJD9iTMbEiPch1-5" value="&lt;font style=&quot;font-size: 19px&quot;&gt;Miyagi&lt;/font&gt;" style="rounded=1;whiteSpace=wrap;html=1;fillColor=#f5f5f5;fontColor=#333333;strokeColor=none;" parent="1" vertex="1">
                    <mxGeometry x="340" y="350" width="86" height="50" as="geometry"/>
                </mxCell>
                <mxCell id="zmosrdIJD9iTMbEiPch1-6" value="&lt;font style=&quot;font-size: 19px&quot;&gt;Yamagata&lt;/font&gt;" style="rounded=1;whiteSpace=wrap;html=1;fillColor=#f5f5f5;fontColor=#333333;strokeColor=none;" parent="1" vertex="1">
                    <mxGeometry x="230" y="350" width="86" height="50" as="geometry"/>
                </mxCell>
                <mxCell id="zmosrdIJD9iTMbEiPch1-7" value="&lt;font style=&quot;font-size: 17px&quot;&gt;Fukushima&lt;/font&gt;" style="rounded=1;whiteSpace=wrap;html=1;fillColor=#f5f5f5;fontColor=#333333;strokeColor=none;" parent="1" vertex="1">
                    <mxGeometry x="340" y="420" width="86" height="50" as="geometry"/>
                </mxCell>
                <mxCell id="zmosrdIJD9iTMbEiPch1-8" value="&lt;font style=&quot;font-size: 19px&quot;&gt;Niigata&lt;/font&gt;" style="rounded=1;whiteSpace=wrap;html=1;fillColor=#f5f5f5;fontColor=#333333;strokeColor=none;" parent="1" vertex="1">
                    <mxGeometry x="230" y="420" width="86" height="50" as="geometry"/>
                </mxCell>
                <mxCell id="zmosrdIJD9iTMbEiPch1-9" value="" style="endArrow=none;html=1;fillColor=#e1d5e7;strokeColor=#9673a6;entryX=0.5;entryY=1;entryDx=0;entryDy=0;exitX=0.5;exitY=0;exitDx=0;exitDy=0;strokeWidth=2;" parent="1" source="zmosrdIJD9iTMbEiPch1-3" target="zmosrdIJD9iTMbEiPch1-2" edge="1">
                    <mxGeometry width="50" height="50" relative="1" as="geometry">
                        <mxPoint x="400" y="400" as="sourcePoint"/>
                        <mxPoint x="450" y="350" as="targetPoint"/>
                    </mxGeometry>
                </mxCell>
                <mxCell id="zmosrdIJD9iTMbEiPch1-10" value="" style="endArrow=none;html=1;fillColor=#e1d5e7;strokeColor=#9673a6;entryX=0.5;entryY=1;entryDx=0;entryDy=0;exitX=0.5;exitY=0;exitDx=0;exitDy=0;strokeWidth=2;" parent="1" source="zmosrdIJD9iTMbEiPch1-4" target="zmosrdIJD9iTMbEiPch1-2" edge="1">
                    <mxGeometry width="50" height="50" relative="1" as="geometry">
                        <mxPoint x="393" y="290" as="sourcePoint"/>
                        <mxPoint x="333" y="260" as="targetPoint"/>
                    </mxGeometry>
                </mxCell>
                <mxCell id="zmosrdIJD9iTMbEiPch1-11" value="" style="endArrow=none;html=1;fillColor=#e1d5e7;strokeColor=#9673a6;entryX=1;entryY=0.5;entryDx=0;entryDy=0;exitX=0;exitY=0.5;exitDx=0;exitDy=0;strokeWidth=2;" parent="1" source="zmosrdIJD9iTMbEiPch1-3" target="zmosrdIJD9iTMbEiPch1-4" edge="1">
                    <mxGeometry width="50" height="50" relative="1" as="geometry">
                        <mxPoint x="393" y="290" as="sourcePoint"/>
                        <mxPoint x="333" y="260" as="targetPoint"/>
                    </mxGeometry>
                </mxCell>
                <mxCell id="zmosrdIJD9iTMbEiPch1-12" value="" style="endArrow=none;html=1;fillColor=#e1d5e7;strokeColor=#9673a6;entryX=0.5;entryY=1;entryDx=0;entryDy=0;exitX=0.5;exitY=0;exitDx=0;exitDy=0;strokeWidth=2;" parent="1" source="zmosrdIJD9iTMbEiPch1-5" target="zmosrdIJD9iTMbEiPch1-3" edge="1">
                    <mxGeometry width="50" height="50" relative="1" as="geometry">
                        <mxPoint x="350" y="315" as="sourcePoint"/>
                        <mxPoint x="326" y="315" as="targetPoint"/>
                    </mxGeometry>
                </mxCell>
                <mxCell id="zmosrdIJD9iTMbEiPch1-13" value="" style="endArrow=none;html=1;fillColor=#e1d5e7;strokeColor=#9673a6;entryX=1;entryY=1;entryDx=0;entryDy=0;exitX=0;exitY=0;exitDx=0;exitDy=0;strokeWidth=2;" parent="1" source="zmosrdIJD9iTMbEiPch1-5" target="zmosrdIJD9iTMbEiPch1-4" edge="1">
                    <mxGeometry width="50" height="50" relative="1" as="geometry">
                        <mxPoint x="393" y="360" as="sourcePoint"/>
                        <mxPoint x="393" y="340" as="targetPoint"/>
                    </mxGeometry>
                </mxCell>
                <mxCell id="zmosrdIJD9iTMbEiPch1-14" value="" style="endArrow=none;html=1;fillColor=#e1d5e7;strokeColor=#9673a6;entryX=1;entryY=0.5;entryDx=0;entryDy=0;exitX=0;exitY=0.5;exitDx=0;exitDy=0;strokeWidth=2;" parent="1" source="zmosrdIJD9iTMbEiPch1-5" target="zmosrdIJD9iTMbEiPch1-6" edge="1">
                    <mxGeometry width="50" height="50" relative="1" as="geometry">
                        <mxPoint x="350" y="360" as="sourcePoint"/>
                        <mxPoint x="326" y="340" as="targetPoint"/>
                    </mxGeometry>
                </mxCell>
                <mxCell id="zmosrdIJD9iTMbEiPch1-15" value="" style="endArrow=none;html=1;fillColor=#e1d5e7;strokeColor=#9673a6;entryX=0.5;entryY=0;entryDx=0;entryDy=0;exitX=0.5;exitY=1;exitDx=0;exitDy=0;strokeWidth=2;" parent="1" source="zmosrdIJD9iTMbEiPch1-5" target="zmosrdIJD9iTMbEiPch1-7" edge="1">
                    <mxGeometry width="50" height="50" relative="1" as="geometry">
                        <mxPoint x="350" y="385" as="sourcePoint"/>
                        <mxPoint x="326" y="385" as="targetPoint"/>
                    </mxGeometry>
                </mxCell>
                <mxCell id="zmosrdIJD9iTMbEiPch1-16" value="" style="endArrow=none;html=1;fillColor=#e1d5e7;strokeColor=#9673a6;entryX=0;entryY=0;entryDx=0;entryDy=0;exitX=1;exitY=1;exitDx=0;exitDy=0;strokeWidth=2;" parent="1" source="zmosrdIJD9iTMbEiPch1-6" target="zmosrdIJD9iTMbEiPch1-7" edge="1">
                    <mxGeometry width="50" height="50" relative="1" as="geometry">
                        <mxPoint x="393" y="410" as="sourcePoint"/>
                        <mxPoint x="393" y="430" as="targetPoint"/>
                    </mxGeometry>
                </mxCell>
                <mxCell id="zmosrdIJD9iTMbEiPch1-17" value="" style="endArrow=none;html=1;fillColor=#e1d5e7;strokeColor=#9673a6;entryX=0.5;entryY=0;entryDx=0;entryDy=0;exitX=0.5;exitY=1;exitDx=0;exitDy=0;strokeWidth=2;" parent="1" source="zmosrdIJD9iTMbEiPch1-6" target="zmosrdIJD9iTMbEiPch1-8" edge="1">
                    <mxGeometry width="50" height="50" relative="1" as="geometry">
                        <mxPoint x="326" y="410" as="sourcePoint"/>
                        <mxPoint x="350" y="430" as="targetPoint"/>
                    </mxGeometry>
                </mxCell>
                <mxCell id="zmosrdIJD9iTMbEiPch1-18" value="AC transmission line" style="text;html=1;strokeColor=none;fillColor=none;align=center;verticalAlign=middle;whiteSpace=wrap;rounded=0;" parent="1" vertex="1">
                    <mxGeometry x="350" y="260" width="150" height="10" as="geometry"/>
                </mxCell>
                <mxCell id="2" value="" style="endArrow=none;html=1;fillColor=#e1d5e7;strokeColor=#9673a6;entryX=1;entryY=0;entryDx=0;entryDy=0;exitX=0;exitY=1;exitDx=0;exitDy=0;strokeWidth=2;" edge="1" parent="1" source="zmosrdIJD9iTMbEiPch1-5" target="zmosrdIJD9iTMbEiPch1-8">
                    <mxGeometry width="50" height="50" relative="1" as="geometry">
                        <mxPoint x="326" y="410" as="sourcePoint"/>
                        <mxPoint x="350" y="430" as="targetPoint"/>
                    </mxGeometry>
                </mxCell>
            </root>
        </mxGraphModel>
    </diagram>
</mxfile>